<svg width="238" height="62" viewBox="0 0 238 62" fill="none" xmlns="http://www.w3.org/2000/svg">
<path d="M88.7533 49.25V18.1786H78V11.75H106.465V18.1786H95.7113V49.25H88.7533Z" fill="white"/>
<path d="M111.203 49.25V11.75H127.227C129.547 11.75 131.567 12.1607 133.289 12.9821C135.011 13.8036 136.347 14.9643 137.295 16.4643C138.244 17.9643 138.719 19.7321 138.719 21.7679V22.4107C138.719 24.6607 138.192 26.4821 137.137 27.875C136.083 29.2679 134.783 30.2857 133.237 30.9286V31.8929C134.642 31.9643 135.732 32.4643 136.505 33.3929C137.278 34.2857 137.664 35.4821 137.664 36.9821V49.25H130.706V38C130.706 37.1429 130.478 36.4464 130.021 35.9107C129.599 35.375 128.879 35.1071 127.86 35.1071H118.161V49.25H111.203ZM118.161 28.6786H126.489C128.141 28.6786 129.424 28.2321 130.337 27.3393C131.286 26.4107 131.761 25.1964 131.761 23.6964V23.1607C131.761 21.6607 131.304 20.4643 130.39 19.5714C129.476 18.6429 128.176 18.1786 126.489 18.1786H118.161V28.6786Z" fill="white"/>
<path d="M141.978 49.25L151.677 11.75H163.801L173.5 49.25H166.331L164.328 41H151.15L149.147 49.25H141.978ZM152.784 34.4643H162.694L158.214 16.1964H157.265L152.784 34.4643Z" fill="white"/>
<path d="M175.597 49.25L186.403 30.3393L175.703 11.75H183.61L190.937 25.3036H191.885L199.212 11.75H207.119L196.419 30.3393L207.225 49.25H199.318L191.885 35.375H190.937L183.504 49.25H175.597Z" fill="white"/>
<path d="M224.031 50C221.185 50 218.672 49.4821 216.493 48.4464C214.315 47.4107 212.61 45.9286 211.38 44C210.15 42.0714 209.535 39.75 209.535 37.0357V35.5357H216.388V37.0357C216.388 39.2857 217.073 40.9821 218.444 42.125C219.814 43.2321 221.677 43.7857 224.031 43.7857C226.421 43.7857 228.196 43.3036 229.355 42.3393C230.55 41.375 231.147 40.1429 231.147 38.6429C231.147 37.6071 230.849 36.7679 230.251 36.125C229.689 35.4821 228.846 34.9643 227.721 34.5714C226.632 34.1429 225.296 33.75 223.715 33.3929L222.503 33.125C219.972 32.5536 217.794 31.8393 215.966 30.9821C214.174 30.0893 212.786 28.9286 211.802 27.5C210.853 26.0714 210.379 24.2143 210.379 21.9286C210.379 19.6429 210.906 17.6964 211.96 16.0893C213.05 14.4464 214.561 13.1964 216.493 12.3393C218.461 11.4464 220.763 11 223.399 11C226.034 11 228.371 11.4643 230.409 12.3929C232.483 13.2857 234.099 14.6429 235.259 16.4643C236.454 18.25 237.051 20.5 237.051 23.2143V24.8214H230.199V23.2143C230.199 21.7857 229.917 20.6429 229.355 19.7857C228.828 18.8929 228.055 18.25 227.036 17.8571C226.017 17.4286 224.804 17.2143 223.399 17.2143C221.29 17.2143 219.726 17.625 218.707 18.4464C217.723 19.2321 217.231 20.3214 217.231 21.7143C217.231 22.6429 217.46 23.4286 217.917 24.0714C218.409 24.7143 219.129 25.25 220.078 25.6786C221.027 26.1071 222.239 26.4821 223.715 26.8036L224.927 27.0714C227.563 27.6429 229.847 28.375 231.78 29.2679C233.748 30.1607 235.277 31.3393 236.366 32.8036C237.455 34.2679 238 36.1429 238 38.4286C238 40.7143 237.42 42.7321 236.261 44.4821C235.136 46.1964 233.519 47.5536 231.411 48.5536C229.338 49.5179 226.878 50 224.031 50Z" fill="white"/>
<path fill-rule="evenodd" clip-rule="evenodd" d="M31 62C48.1208 62 62 48.1208 62 31C62 13.8792 48.1208 0 31 0C13.8792 0 0 13.8792 0 31C0 48.1208 13.8792 62 31 62ZM45 19L18 19V25.4584H31.9615L22.1294 42.7708L27.6312 46L39.2973 25.4584H45V19Z" fill="#06E601"/>
</svg>
